<?xml version="1.0" encoding="utf-8"?>
<!-- Generator: Adobe Illustrator 25.3.1, SVG Export Plug-In . SVG Version: 6.00 Build 0)  -->
<svg version="1.1" id="Layer_1" xmlns="http://www.w3.org/2000/svg" xmlns:xlink="http://www.w3.org/1999/xlink" x="0px" y="0px"
	 viewBox="0 0 32 32" style="enable-background:new 0 0 32 32;" xml:space="preserve">
<style type="text/css">
	.st0{fill-rule:evenodd;clip-rule:evenodd;fill:#C1272D;}
	.st1{fill-rule:evenodd;clip-rule:evenodd;fill:#520D0D;}
	.st2{fill-rule:evenodd;clip-rule:evenodd;fill:#F15A24;}
	.st3{fill-rule:evenodd;clip-rule:evenodd;fill-opacity:0.153;}
	.st4{fill:#EAC85C;}
</style>
<g>
	<g>
		<g>
			<g>
				<path class="st0" d="M1,18.8C4.2,16.3,14.3,7.9,17.5,2c0.5-1,1.8-1.5,2.8-0.9c1.5,0.8,3,2.6,2.4,3.8c-1,1.9-1.4,3.2-0.4,4.1
					c1.8,1.4,2.9,0.2,4-0.3c0.5-0.2,1.1-0.3,1.6,0c1.6,0.7,3.8,2.9,2.4,4.7c-1.8,2.2-11,13.9-17.7,17.3c-3,1.8-5.9-2.9-4-4.2
					c1.8-1.7,0.7-3.4-0.2-4.1c-0.9-0.7-2.1-0.7-3.7,0.2c-1.5,0.9-2,0.5-2.9-0.3c-0.2-0.2-0.5-0.4-0.8-0.7C0.2,20.8,0.2,19.5,1,18.8"
					/>
				<path class="st1" d="M26.3,17c0.2,0.1,0.3,0.2,0.5,0.3L26.4,18c-0.2-0.1-0.3-0.2-0.5-0.3C25.9,17.7,26.3,17,26.3,17z M24.3,15.7
					c0.3,0.2,0.6,0.4,1,0.7l-0.4,0.7c-0.3-0.2-0.7-0.4-1-0.7L24.3,15.7L24.3,15.7z M22.4,14.4c0.3,0.2,0.6,0.5,0.9,0.7l-0.5,0.7
					c-0.3-0.2-0.6-0.5-1-0.7L22.4,14.4L22.4,14.4z M20.6,13c0.3,0.2,0.6,0.5,0.9,0.7L21,14.3c-0.3-0.3-0.6-0.5-0.9-0.7L20.6,13z
					 M18.9,11.4c0.3,0.2,0.6,0.5,0.9,0.8l-0.5,0.6c-0.3-0.3-0.6-0.5-0.9-0.8L18.9,11.4L18.9,11.4z M17.2,9.8
					c0.2,0.3,0.5,0.5,0.8,0.8l-0.6,0.6c-0.3-0.3-0.6-0.6-0.8-0.8L17.2,9.8z M15.7,8.1c0.2,0.3,0.5,0.6,0.7,0.9l-0.6,0.5
					c-0.3-0.3-0.5-0.6-0.8-0.9C15.1,8.6,15.7,8.1,15.7,8.1z M14.7,6.7c0,0,0.1,0.2,0.3,0.5l-0.7,0.5C14.1,7.3,14,7.1,14,7.1
					L14.7,6.7z"/>
				<path class="st2" d="M4.7,22.5c0.2-0.1,0.3-0.2,0.5-0.3c-1.1,0.2-2,0.4-2.8,0.5C3,23.1,3.6,23.2,4.7,22.5"/>
				<path class="st3" d="M30.3,13.2c1.1-1.3,0.1-2.9-1.2-3.9c-0.1,0.1-0.1,0.2-0.2,0.3C23.4,16.9,14,20.2,7.3,21.7
					c0.4,0.1,0.8,0.2,1.1,0.5c0.9,0.7,1.9,2.4,0.2,4.1c-1.9,1.2,1,5.9,4,4.2C19.3,27.1,28.5,15.4,30.3,13.2"/>
				<g>
					<path class="st1" d="M7,21.3c0.6,0,1.2,0.2,1.7,0.6c0.3,0.2,1.2,1.1,1.3,2.4c0,0.8-0.3,1.6-1.1,2.4l-0.1,0
						c-0.6,0.4-0.4,1.5,0.1,2.3c0.7,1.1,2.1,2,3.5,1.2C16.6,28,22.9,21.9,30,13c0.4-0.4,0.5-0.9,0.3-1.4c-0.3-1.1-1.5-2.2-2.6-2.7
						c-0.4-0.2-0.9-0.2-1.2,0c-0.2,0.1-0.4,0.2-0.5,0.3c-0.9,0.6-2.2,1.3-3.8,0c-1.4-1.1-0.7-2.8,0.3-4.6c0.1-0.3,0.1-0.6,0-0.9
						c-0.3-0.8-1.2-1.8-2.2-2.3c-0.8-0.4-1.8-0.1-2.3,0.8c-3.3,6-13.5,14.5-16.6,17c-0.3,0.3-0.5,0.6-0.5,1s0.2,0.8,0.5,1l0.2,0.1
						c0.2,0.2,0.4,0.4,0.6,0.5c0.8,0.8,1.1,1.1,2.4,0.3C5.4,21.6,6.2,21.3,7,21.3 M11.2,31.3c-1.3,0-2.4-0.9-3-1.9
						C7.3,28,7.4,26.7,8.3,26c0.6-0.6,0.8-1.1,0.8-1.7c0-0.9-0.8-1.6-1-1.8c-0.8-0.6-1.9-0.5-3.2,0.3c-1.7,1.1-2.4,0.6-3.4-0.4
						c-0.2-0.2-0.4-0.3-0.6-0.5l-0.2-0.1c-0.5-0.4-0.8-1-0.8-1.7c0-0.6,0.3-1.2,0.8-1.7C3.8,16.1,14,7.7,17.2,1.8
						c0.7-1.2,2.1-1.7,3.3-1.1c1.2,0.6,2.3,1.7,2.6,2.8C23.3,4,23.3,4.5,23.1,5c-1.1,2.1-1.2,2.9-0.5,3.6c1.2,1,2.1,0.5,2.9,0
						c0.2-0.1,0.4-0.2,0.6-0.3c0.6-0.3,1.3-0.3,1.9,0c1.2,0.6,2.7,1.9,3,3.2c0.2,0.7,0,1.5-0.5,2.1c-4.2,5.2-12,14.4-17.8,17.4
						C12.2,31.2,11.7,31.3,11.2,31.3"/>
				</g>
			</g>
		</g>
	</g>
</g>
<g>
	<polygon class="st4" points="22.9,18.7 15.8,20.1 16.3,18.9 11.4,19.2 11.9,17.8 6.7,17.5 14,16 13.5,17.4 18.4,17.2 18,18.4 	"/>
</g>
</svg>
