<svg xmlns="http://www.w3.org/2000/svg" width="37" height="37" viewBox="0 0 37 37"><defs><style>.a{fill:#fff;}</style></defs><path class="a" d="M34.61,19.17,18.87,5.74a.83.83,0,0,0-1.1,0L2.39,19.27a.82.82,0,0,1-1.17-.07l-.91-1A.83.83,0,0,1,.39,17L17.32,2.09a1.51,1.51,0,0,1,2,0L36.61,16.9a.84.84,0,0,1,.08,1.18l-.91,1A.83.83,0,0,1,34.61,19.17Z"/><path class="a" d="M31.1,18.38,19.27,8.21a1.43,1.43,0,0,0-1.86,0L5.88,18.39a1.43,1.43,0,0,0-.48,1.06V33.87a1.42,1.42,0,0,0,1.42,1.41H30.18a1.42,1.42,0,0,0,1.42-1.41V19.45A1.4,1.4,0,0,0,31.1,18.38Zm-9.87,8.08-3.51-.1.06,5.88L13,24.61l3.51.1-1.24-5.38,3,.05,0-5.54,4.52,7.43-3-.16Z"/></svg>