<svg xmlns="http://www.w3.org/2000/svg" width="32" height="32" viewBox="0 0 32 32"><defs><style>.a{fill:#c1272d;}.a,.b,.c,.d{fill-rule:evenodd;}.b{fill:#520d0d;}.c{fill:#f15a24;}.d{fill-opacity:0.15;}.e{fill:#eac85c;}</style></defs><path class="a" d="M1,18.8C4.2,16.3,14.3,7.9,17.5,2a2,2,0,0,1,2.8-.9c1.5.8,3,2.6,2.4,3.8-1,1.9-1.4,3.2-.4,4.1,1.8,1.4,2.9.2,4-.3a1.8,1.8,0,0,1,1.6,0c1.6.7,3.8,2.9,2.4,4.7-1.8,2.2-11,13.9-17.7,17.3-3,1.8-5.9-2.9-4-4.2a2.53,2.53,0,0,0-.2-4.1c-.9-.7-2.1-.7-3.7.2s-2,.5-2.9-.3c-.2-.2-.5-.4-.8-.7a1.93,1.93,0,0,1,0-2.8"/><path class="b" d="M26.3,17c.2.1.3.2.5.3l-.4.7c-.2-.1-.3-.2-.5-.3Zm-2-1.3c.3.2.6.4,1,.7l-.4.7a6.07,6.07,0,0,1-1-.7l.4-.7Zm-1.9-1.3c.3.2.6.5.9.7l-.5.7a8.65,8.65,0,0,0-1-.7l.6-.7ZM20.6,13c.3.2.6.5.9.7l-.5.6a5.5,5.5,0,0,0-.9-.7Zm-1.7-1.6a6.47,6.47,0,0,1,.9.8l-.5.6c-.3-.3-.6-.5-.9-.8l.5-.6ZM17.2,9.8a6,6,0,0,0,.8.8l-.6.6-.8-.8ZM15.7,8.1c.2.3.5.6.7.9l-.6.5c-.3-.3-.5-.6-.8-.9A4.23,4.23,0,0,0,15.7,8.1Zm-1-1.4a5.2,5.2,0,0,0,.3.5l-.7.5L14,7.1Z"/><path class="c" d="M4.7,22.5c.2-.1.3-.2.5-.3-1.1.2-2,.4-2.8.5.6.4,1.2.5,2.3-.2"/><path class="d" d="M30.3,13.2c1.1-1.3.1-2.9-1.2-3.9-.1.1-.1.2-.2.3C23.4,16.9,14,20.2,7.3,21.7a2.22,2.22,0,0,1,1.1.5,2.59,2.59,0,0,1,.2,4.1c-1.9,1.2,1,5.9,4,4.2,6.7-3.4,15.9-15.1,17.7-17.3"/><path class="b" d="M7,21.3a2.72,2.72,0,0,1,1.7.6A3.49,3.49,0,0,1,10,24.3a3.3,3.3,0,0,1-1.1,2.4H8.8c-.6.4-.4,1.5.1,2.3a2.63,2.63,0,0,0,3.5,1.2C16.6,28,22.9,21.9,30,13a1.24,1.24,0,0,0,.3-1.4,4.9,4.9,0,0,0-2.6-2.7,1.27,1.27,0,0,0-1.2,0,2.19,2.19,0,0,0-.5.3,2.85,2.85,0,0,1-3.8,0c-1.4-1.1-.7-2.8.3-4.6a1.39,1.39,0,0,0,0-.9,4.85,4.85,0,0,0-2.2-2.3,1.74,1.74,0,0,0-2.3.8c-3.3,6-13.5,14.5-16.6,17a1.39,1.39,0,0,0-.5,1,1.23,1.23,0,0,0,.5,1l.2.1a2.65,2.65,0,0,0,.6.5c.8.8,1.1,1.1,2.4.3A4.58,4.58,0,0,1,7,21.3m4.2,10a3.68,3.68,0,0,1-3-1.9c-.9-1.4-.8-2.7.1-3.4a2.25,2.25,0,0,0,.8-1.7,2.75,2.75,0,0,0-1-1.8c-.8-.6-1.9-.5-3.2.3-1.7,1.1-2.4.6-3.4-.4-.2-.2-.4-.3-.6-.5l-.2-.1a2.14,2.14,0,0,1-.8-1.7,2.46,2.46,0,0,1,.8-1.7C3.8,16.1,14,7.7,17.2,1.8A2.51,2.51,0,0,1,20.5.7a5,5,0,0,1,2.6,2.8,2,2,0,0,1,0,1.5c-1.1,2.1-1.2,2.9-.5,3.6a2.14,2.14,0,0,0,2.9,0l.6-.3a2.12,2.12,0,0,1,1.9,0,5.86,5.86,0,0,1,3,3.2,2.34,2.34,0,0,1-.5,2.1C26.3,18.8,18.5,28,12.7,31a4,4,0,0,1-1.5.3"/><polygon class="e" points="22.9 18.7 15.8 20.1 16.3 18.9 11.4 19.2 11.9 17.8 6.7 17.5 14 16 13.5 17.4 18.4 17.2 18 18.4 22.9 18.7"/></svg>