<svg xmlns="http://www.w3.org/2000/svg" width="37" height="37" viewBox="0 0 37 37"><defs><style>.a,.c,.d{fill:#fff;}.a,.b,.c{fill-rule:evenodd;}.b{fill:#f15a24;}.c{stroke:#fff;}</style></defs><path class="a" d="M30.5,20.1a2.09,2.09,0,0,1,.6.4l-.5.8a2.09,2.09,0,0,1-.6-.4Zm-2.2-1.4c.4.2.7.5,1.1.7l-.5.7c-.4-.2-.7-.5-1.1-.7Zm-2.1-1.6a10.47,10.47,0,0,0,1.1.8l-.5.7-1.1-.8Zm-2.1-1.6c.3.3.7.5,1,.8l-.5.7c-.4-.3-.7-.6-1-.8l.5-.7Zm-2-1.7a9,9,0,0,0,1,.9l-.6.7c-.3-.3-.7-.6-1-.9ZM20.3,12l.9.9-.6.6-.9-.9.6-.6Zm-1.7-1.9c.3.3.5.7.8,1l-.7.6a9,9,0,0,0-.9-1ZM17.5,8.5h0a2.19,2.19,0,0,1,.3.5l-.7.5a4.57,4.57,0,0,1-.4-.6l.8-.4Z"/><path class="b" d="M6.3,26.2a2.19,2.19,0,0,0,.5-.3c-1.2.2-2.2.4-3.1.5.7.5,1.3.6,2.6-.2"/><path class="c" d="M8.8,24.9a2.64,2.64,0,0,1,1.9.7,3.7,3.7,0,0,1,1.4,2.6,3.69,3.69,0,0,1-1.2,2.6l-.1.1c-.7.5-.5,1.6.1,2.6.8,1.3,2.4,2.3,4,1.3,4.8-2.5,11.8-9.3,19.7-19.3a1.88,1.88,0,0,0,.4-1.6,5.33,5.33,0,0,0-2.9-3,1.71,1.71,0,0,0-1.4,0l-.6.3c-1,.6-2.4,1.5-4.3-.1-1.6-1.1-.8-3,.3-4.9a1.16,1.16,0,0,0,0-1,4.84,4.84,0,0,0-2.5-2.6,1.92,1.92,0,0,0-2.6.9c-3.7,6.8-15.2,16.3-18.6,19a1.43,1.43,0,0,0-.6,1.2,1.66,1.66,0,0,0,.5,1.2l.2.2c.2.2.5.4.7.6.9.9,1.3,1.2,2.7.3a5,5,0,0,1,2.9-1.1m4.8,11.2A4.33,4.33,0,0,1,10.2,34c-.9-1.5-.9-3.1.2-3.8a2.8,2.8,0,0,0,.9-1.9,2.72,2.72,0,0,0-1.1-2q-1.35-1.05-3.6.3c-1.9,1.2-2.7.6-3.8-.4a4.35,4.35,0,0,0-.7-.6l-.2-.2A2.14,2.14,0,0,1,1,23.6a2.46,2.46,0,0,1,.9-1.9C5.3,19,16.7,9.6,20.2,3A3,3,0,0,1,24,1.7a5.44,5.44,0,0,1,2.9,3.1,2,2,0,0,1-.1,1.7c-1.2,2.3-1.4,3.3-.5,4,1.4,1.1,2.3.6,3.3,0,.2-.1.5-.3.7-.4a2.44,2.44,0,0,1,2.2,0,6.33,6.33,0,0,1,3.4,3.6,2.75,2.75,0,0,1-.5,2.3c-4.7,5.9-13.4,16.1-20,19.5a3.8,3.8,0,0,1-1.8.6"/><polygon class="d" points="25.2 21.7 18.1 23.1 18.6 21.9 13.7 22.2 14.2 20.8 9 20.5 16.3 19 15.8 20.4 20.7 20.2 20.3 21.4 25.2 21.7"/></svg>